<?xml version="1.0" encoding="utf-8"?>
<!-- Generator: Adobe Illustrator 23.1.1, SVG Export Plug-In . SVG Version: 6.00 Build 0)  -->
<svg version="1.1" id="Capa_1" xmlns="http://www.w3.org/2000/svg" xmlns:xlink="http://www.w3.org/1999/xlink" x="0px" y="0px"
	 viewBox="0 0 512 512" style="enable-background:new 0 0 512 512;" xml:space="preserve">
<style type="text/css">
	.st0{fill:#FFFFFF;}
</style>
<g>
	<path class="st0" d="M256,271c-39,0-70.7,31.7-70.7,70.7s31.7,70.7,70.7,70.7s70.7-31.7,70.7-70.7S295,271,256,271z M272.9,356.7
		h-33.7v-30h33.7V356.7z"/>
	<path class="st0" d="M224.1,0h155.3v141.3H224.1V0z"/>
	<path class="st0" d="M132.7,0h61.4v141.3h-61.4V0z"/>
	<path class="st0" d="M409.3,0v171.3H102.7V0H57.1L0,58.9V512h512V0H409.3z M256,442.3c-55.5,0-100.7-45.2-100.7-100.7
		S200.5,241,256,241s100.7,45.2,100.7,100.7S311.5,442.3,256,442.3z"/>
</g>
</svg>
