<?xml version="1.0" encoding="utf-8"?>
<!-- Generator: Adobe Illustrator 23.1.1, SVG Export Plug-In . SVG Version: 6.00 Build 0)  -->
<svg version="1.1" id="Capa_1" xmlns="http://www.w3.org/2000/svg" xmlns:xlink="http://www.w3.org/1999/xlink" x="0px" y="0px"
	 viewBox="0 0 401 399" style="enable-background:new 0 0 401 399;" xml:space="preserve">
<style type="text/css">
	.st0{fill:#FFFFFF;}
</style>
<path class="st0" d="M370.1,250.4c-5.5,0-10,4.5-10,10V349c0,16.5-13.4,29.9-30,30H49.9c-16.5,0-29.9-13.4-30-30V88.8
	c0-16.5,13.4-29.9,30-30h88.7c5.5,0,10-4.5,10-10c0-5.5-4.5-10-10-10H49.9C22.4,38.9,0,61.2,0,88.8V349C0,376.6,22.4,399,49.9,399
	h280.2c27.6,0,49.9-22.4,49.9-49.9v-88.7C380.1,254.9,375.6,250.4,370.1,250.4z"/>
<path class="st0" d="M376.1,13.2c-17.6-17.6-46-17.6-63.6,0L134.4,191.3c-1.2,1.2-2.1,2.7-2.6,4.4l-23.4,84.6c-1,3.5,0,7.2,2.6,9.7
	c2.5,2.5,6.3,3.5,9.7,2.6l84.6-23.4c1.7-0.5,3.2-1.3,4.4-2.6L387.9,88.4c17.5-17.6,17.5-46,0-63.6L376.1,13.2z M156.2,197.8L302,52
	l47,47L203.2,244.9L156.2,197.8z M146.8,216.7l37.6,37.6l-52,14.4L146.8,216.7z M373.7,74.3l-10.6,10.6l-47-47l10.6-10.6
	c9.7-9.7,25.6-9.7,35.3,0L373.7,39C383.5,48.8,383.5,64.6,373.7,74.3z"/>
</svg>
