<?xml version="1.0" encoding="UTF-8"?>
<svg width="36px" height="22px" viewBox="0 0 36 22" version="1.1" xmlns="http://www.w3.org/2000/svg" xmlns:xlink="http://www.w3.org/1999/xlink">
    <!-- Generator: sketchtool 54.1 (76490) - https://sketchapp.com -->
    <title>C77C5F9D-BA06-4296-A734-ABC2986CDCF3_webview</title>
    <desc>Created with sketchtool.</desc>
    <g id="Page-1" stroke="none" stroke-width="1" fill="none" fill-rule="evenodd">
        <g id="9-pago" transform="translate(-245.000000, -1051.000000)">
            <g id="AmericanExpress-dark" transform="translate(245.000000, 1051.000000)">
                <g>
                    <rect id="Rectangle" fill="#0072CE" x="0" y="0" width="36" height="21.6" rx="4"></rect>
                    <path d="M30.3866501,12.4796099 L29.1147553,12.4796099 C28.9877684,12.4796099 28.903404,12.484351 28.8323371,12.532201 C28.7587164,12.5793487 28.7303601,12.6493238 28.7303601,12.7416875 C28.7303601,12.8515231 28.7925326,12.9262394 28.8829734,12.9585491 C28.9565941,12.9840984 29.0356747,12.9915612 29.1519179,12.9915612 L29.5301488,13.001658 C29.9118141,13.0110524 30.1665805,13.0764621 30.3219237,13.2359914 C30.350192,13.2582044 30.3671881,13.2831391 30.3866501,13.3080738 L30.3866501,12.4796099 Z M30.3866501,14.3991421 C30.2171287,14.646294 29.8868042,14.7715821 29.43962,14.7715821 L28.0919029,14.7715821 L28.0919029,14.147249 L29.43416,14.147249 C29.5673114,14.147249 29.6604821,14.1297772 29.7165783,14.0751667 C29.7651891,14.0301262 29.7990933,13.9647165 29.7990933,13.8852592 C29.7990933,13.8004461 29.7651891,13.7331049 29.7138483,13.6927177 C29.6632121,13.6482918 29.5895033,13.6280982 29.4679763,13.6280982 C28.8126991,13.6058853 27.9952097,13.6482918 27.9952097,12.7269375 C27.9952097,12.3046281 28.2641543,11.8601058 28.9964866,11.8601058 L30.386562,11.8601058 L30.386562,11.2808132 L29.0950292,11.2808132 C28.7052621,11.2808132 28.4221394,11.3738793 28.2216198,11.5185708 L28.2216198,11.2808132 L26.3112679,11.2808132 C26.0057772,11.2808132 25.6471844,11.3563197 25.477575,11.5185708 L25.477575,11.2808132 L22.0661883,11.2808132 L22.0661883,11.5185708 C21.7946899,11.3233075 21.3365859,11.2808132 21.1251465,11.2808132 L18.8749592,11.2808132 L18.8749592,11.5185708 C18.6601735,11.3111914 18.1825194,11.2808132 17.891383,11.2808132 L15.3730437,11.2808132 L14.7967591,11.9026001 L14.2570206,11.2808132 L10.495143,11.2808132 L10.495143,15.3434118 L14.1862179,15.3434118 L14.7800271,14.7117915 L15.3394037,15.3434118 L17.6146008,15.3454311 L17.6146008,14.3897477 L17.8382809,14.3897477 C18.1401611,14.394401 18.4962,14.3822848 18.810321,14.2469 L18.810321,15.343324 L20.6869447,15.343324 L20.6869447,14.2844776 L20.7774735,14.2844776 C20.8930123,14.2844776 20.9043724,14.2892187 20.9043724,14.4043222 L20.9043724,15.3432362 L26.6052224,15.3432362 C26.9671616,15.3432362 27.3454805,15.2508725 27.5549825,15.0832657 L27.5549825,15.3432362 L29.3632693,15.3432362 C29.7395627,15.3432362 30.1070499,15.290645 30.3866501,15.1559626 L30.3866501,14.3991421 L30.3866501,14.3991421 Z M27.6028888,13.2359914 C27.7387701,13.3762052 27.8115982,13.5532064 27.8115982,13.8528616 C27.8115982,14.479214 27.4191012,14.7715821 26.7153012,14.7715821 L25.356048,14.7715821 L25.356048,14.147249 L26.7098413,14.147249 C26.8422001,14.147249 26.9360753,14.1297772 26.9949014,14.0751667 C27.0428958,14.0301262 27.0773285,13.9647165 27.0773285,13.8852592 C27.0773285,13.8004461 27.0400778,13.7331049 26.9921715,13.6927177 C26.9388053,13.6482918 26.8651846,13.6280982 26.7436575,13.6280982 C26.0910222,13.6058853 25.273709,13.6482918 25.273709,12.7269375 C25.273709,12.3046281 25.5398356,11.8601058 26.2714634,11.8601058 L27.6705212,11.8601058 L27.6705212,12.4797855 L26.3903486,12.4797855 C26.2634497,12.4797855 26.1809346,12.4845266 26.1107484,12.5323766 C26.0343096,12.5795243 26.0059533,12.6494994 26.0059533,12.7418631 C26.0059533,12.8516987 26.0708558,12.926415 26.1586547,12.9587247 C26.2322754,12.984274 26.311356,12.9917368 26.4302411,12.9917368 L26.8059181,13.0018336 C27.1847654,13.0110524 27.4448156,13.0763743 27.6028888,13.2359914 L27.6028888,13.2359914 Z M21.3056757,13.0561807 C21.2123289,13.1114058 21.0968782,13.1161469 20.961085,13.1161469 L20.113302,13.1161469 L20.113302,12.4622259 L20.9726213,12.4622259 C21.0968782,12.4622259 21.2212233,12.4648598 21.3056757,12.514817 C21.3961165,12.5619646 21.4501872,12.6521334 21.4501872,12.776719 C21.4501872,12.9013047 21.3961165,13.001658 21.3056757,13.0561807 L21.3056757,13.0561807 Z M21.7271455,13.4185239 C21.8824888,13.4756805 22.0094757,13.5781411 22.0690063,13.6629541 C22.1675489,13.8050994 22.1818151,13.9377625 22.1846331,14.1943967 L22.1846331,14.7715821 L21.4840034,14.7715821 L21.4840034,14.4073073 C21.4840034,14.2321499 21.5009115,13.972794 21.3711946,13.8374092 C21.2692176,13.7331049 21.1137863,13.7081702 20.859196,13.7081702 L20.11339,13.7081702 L20.11339,14.7715821 L19.4121439,14.7715821 L19.4121439,11.860018 L21.0233456,11.860018 C21.3766546,11.860018 21.6339748,11.8755583 21.8630268,11.9974222 C22.0832725,12.1300853 22.2217957,12.3118275 22.2217957,12.6439681 C22.2217076,13.108684 21.9108451,13.345827 21.7271455,13.4185239 L21.7271455,13.4185239 Z M22.6087448,11.860018 L24.9379246,11.860018 L24.9379246,12.4621381 L23.3037384,12.4621381 L23.3037384,12.9914734 L24.898032,12.9914734 L24.898032,13.5855161 L23.3037384,13.5855161 L23.3037384,14.1648087 L24.9379246,14.1674426 L24.9379246,14.7715821 L22.6087448,14.7715821 L22.6087448,11.860018 L22.6087448,11.860018 Z M17.9002773,13.2036817 L16.9984236,13.2036817 L16.9984236,12.4622259 L17.9083791,12.4622259 C18.1603275,12.4622259 18.3352208,12.5645986 18.3352208,12.8192134 C18.3352208,13.0710186 18.1684293,13.2036817 17.9002773,13.2036817 L17.9002773,13.2036817 Z M16.3033419,14.5067827 L15.2318787,13.3208045 L16.3033419,12.1724918 L16.3033419,14.5067827 L16.3033419,14.5067827 Z M13.5363126,14.1648087 L11.820492,14.1648087 L11.820492,13.5855161 L13.352613,13.5855161 L13.352613,12.9914734 L11.820492,12.9914734 L11.820492,12.4621381 L13.5701288,12.4621381 L14.3334594,13.3106199 L13.5363126,14.1648087 L13.5363126,14.1648087 Z M19.0844613,12.8192134 C19.0844613,13.6280104 18.4792039,13.7950026 17.8691911,13.7950026 L16.9984236,13.7950026 L16.9984236,14.7715821 L15.6419883,14.7715821 L14.782669,13.8077334 L13.8896216,14.7715821 L11.1253222,14.7715821 L11.1253222,11.860018 L13.932156,11.860018 L14.7907708,12.8143845 L15.6784464,11.860018 L17.9083791,11.860018 C18.4622077,11.860018 19.0844613,12.0128746 19.0844613,12.8192134 L19.0844613,12.8192134 Z" id="EXPRESS" fill="#FFFFFF"></path>
                    <path d="M7.79574611,8.50472176 L7.31809209,7.34429288 L6.84316803,8.50472176 L7.79574611,8.50472176 Z M18.3184007,8.04263981 C18.2225001,8.10067442 18.1090748,8.10260598 17.9731936,8.10260598 L17.1254105,8.10260598 L17.1254105,7.45606 L17.9847298,7.45606 C18.1063449,7.45606 18.2332438,7.46150349 18.3156708,7.50856333 C18.4061996,7.55096986 18.4622077,7.64122641 18.4622077,7.76589987 C18.4622077,7.89311946 18.4089296,7.99549217 18.3184007,8.04263981 L18.3184007,8.04263981 Z M24.3663953,8.50472176 L23.8834575,7.34429288 L23.4031616,8.50472176 L24.3663953,8.50472176 L24.3663953,8.50472176 Z M13.0925628,9.76076289 L12.3771386,9.76076289 L12.3744967,7.48099469 L11.3625641,9.76076289 L10.7498213,9.76076289 L9.73524687,7.47897533 L9.73524687,9.76076289 L8.31584652,9.76076289 L8.04769452,9.11149516 L6.59465408,9.11149516 L6.32377212,9.76076289 L5.56581339,9.76076289 L6.81551623,6.84990119 L7.85237066,6.84990119 L9.03928453,9.60588685 L9.03928453,6.84990119 L10.1782921,6.84990119 L11.0915941,8.82457062 L11.9305708,6.84990119 L13.0924748,6.84990119 L13.0924748,9.76076289 L13.0925628,9.76076289 Z M15.9439565,9.76076289 L13.6126632,9.76076289 L13.6126632,6.84990119 L15.9439565,6.84990119 L15.9439565,7.45606 L14.310563,7.45606 L14.310563,7.98074207 L15.9047685,7.98074207 L15.9047685,8.57741868 L14.310563,8.57741868 L14.310563,9.15873059 L15.9439565,9.15873059 L15.9439565,9.76076289 L15.9439565,9.76076289 Z M19.2309982,7.63385136 C19.2309982,8.09795268 18.9203117,8.33772958 18.7392541,8.4097241 C18.8919554,8.46767092 19.0223768,8.57004363 19.0844613,8.65485669 C19.1830038,8.79963593 19.2,8.92896269 19.2,9.18893318 L19.2,9.76076289 L18.496112,9.76076289 L18.4934701,9.39367859 C18.4934701,9.21852117 18.5102901,8.96662812 18.3833032,8.82658998 C18.2813262,8.72421728 18.1258949,8.70200433 17.874651,8.70200433 L17.1254986,8.70200433 L17.1254986,9.76076289 L16.4276869,9.76076289 L16.4276869,6.84990119 L18.0328122,6.84990119 C18.3894676,6.84990119 18.6522478,6.8592956 18.8778653,6.98932474 C19.0986394,7.11935388 19.2309982,7.3091736 19.2309982,7.63385136 L19.2309982,7.63385136 Z M20.3478139,9.76076289 L19.635736,9.76076289 L19.635736,6.84990119 L20.3478139,6.84990119 L20.3478139,9.76076289 L20.3478139,9.76076289 Z M28.6088331,9.76076289 L27.619885,9.76076289 L26.2970898,7.57599235 L26.2970898,9.76076289 L24.8758401,9.76076289 L24.6042536,9.11149516 L23.1545596,9.11149516 L22.8910749,9.76076289 L22.0744662,9.76076289 C21.7352473,9.76076289 21.3057638,9.68595882 21.0625336,9.43880687 C20.817278,9.19165492 20.6896747,8.85688036 20.6896747,8.32754498 C20.6896747,7.89584121 20.7659373,7.50118828 21.06588,7.18932905 C21.2914976,6.957015 21.6448066,6.84990119 22.1257189,6.84990119 L22.8013387,6.84990119 L22.8013387,7.47361964 L22.1398971,7.47361964 C21.8852187,7.47361964 21.7414117,7.51137287 21.6028886,7.64605532 C21.4839154,7.76862161 21.4022809,8.00032107 21.4022809,8.30541984 C21.4022809,8.61727906 21.4644534,8.84213026 21.5941703,8.98901666 C21.7016072,9.10420791 21.896843,9.13915159 22.0805426,9.13915159 L22.393959,9.13915159 L23.3775353,6.84998899 L24.423196,6.84998899 L25.604738,9.60325291 L25.604738,6.84998899 L26.6673069,6.84998899 L27.8940252,8.87724955 L27.8940252,6.84998899 L28.6088331,6.84998899 L28.6088331,9.76076289 L28.6088331,9.76076289 Z M5.55771159,10.3325048 L6.75008538,10.3325048 L7.01894189,9.68595882 L7.62085288,9.68595882 L7.88900489,10.3325048 L10.2350928,10.3325048 L10.2350928,9.8382009 L10.4445067,10.334612 L11.6624188,10.334612 L11.8718327,9.83082585 L11.8718327,10.3325048 L17.7023116,10.3325048 L17.6995816,9.27120009 L17.8123904,9.27120009 C17.891383,9.27392184 17.9144555,9.28120909 17.9144555,9.41123823 L17.9144555,10.3325048 L20.9299987,10.3325048 L20.9299987,10.0854406 C21.1732289,10.215382 21.5515478,10.3325048 22.0493682,10.3325048 L23.3180046,10.3325048 L23.589503,9.68595882 L24.191414,9.68595882 L24.4569241,10.3325048 L26.9016427,10.3325048 L26.9016427,9.71835635 L27.2718598,10.3325048 L29.2309105,10.3325048 L29.2309105,6.27271579 L27.2921143,6.27271579 L27.2921143,6.75218179 L27.0206159,6.27271579 L25.0311833,6.27271579 L25.0311833,6.75218179 L24.7818768,6.27271579 L22.0946327,6.27271579 C21.6448066,6.27271579 21.2494034,6.33531591 20.9299987,6.50977094 L20.9299987,6.27271579 L19.0755669,6.27271579 L19.0755669,6.50977094 C18.8723174,6.32996022 18.595359,6.27271579 18.2874025,6.27271579 L11.5124474,6.27271579 L11.0578659,7.32128975 L10.5910437,6.27271579 L8.45709966,6.27271579 L8.45709966,6.75218179 L8.22267581,6.27271579 L6.40276468,6.27271579 L5.55762353,8.20295933 L5.55762353,10.3325048 L5.55771159,10.3325048 Z" id="AMERICAN" fill="#FFFFFF"></path>
                </g>
            </g>
        </g>
    </g>
</svg>