<svg xmlns="http://www.w3.org/2000/svg" viewBox="0 0 300 75"><title>payment_logo_</title><path d="M143.39,49.6h-2.74l2.12-5.24L138.55,33.7h2.9L144.1,41l2.68-7.25h2.9ZM132.86,45a4.6,4.6,0,0,1-2.81-1v.77h-2.83V28.86h2.83v5.6a4.72,4.72,0,0,1,2.81-1c3,0,5,2.39,5,5.79S135.83,45,132.86,45Zm-.6-9.16a3.13,3.13,0,0,0-2.21,1V41.6a3.13,3.13,0,0,0,2.21,1c1.59,0,2.7-1.37,2.7-3.36S133.86,35.87,132.27,35.87ZM115.76,44A4.51,4.51,0,0,1,113,45c-2.94,0-5-2.39-5-5.79s2.06-5.79,5-5.79a4.62,4.62,0,0,1,2.81,1v-5.6h2.85v15.9h-2.85Zm0-7.12a3,3,0,0,0-2.19-1c-1.61,0-2.72,1.37-2.72,3.36s1.1,3.36,2.72,3.36a3,3,0,0,0,2.19-1ZM98.91,40a3.16,3.16,0,0,0,3.36,2.83,6.79,6.79,0,0,0,3.29-1v2.37a9,9,0,0,1-3.76.86,5.55,5.55,0,0,1-5.68-5.88,5.39,5.39,0,0,1,5.46-5.71c2.9,0,4.87,2.28,4.87,5.53a8.56,8.56,0,0,1,0,1Zm2.57-4.38a2.59,2.59,0,0,0-2.57,2.54h4.82A2.4,2.4,0,0,0,101.48,35.63Zm-10,1.75v7.39H88.63V33.7h2.83v1.11a3.74,3.74,0,0,1,2.72-1.37,3.35,3.35,0,0,1,.93.11v2.52a3.67,3.67,0,0,0-1-.13A3.49,3.49,0,0,0,91.46,37.37ZM78.83,40a3.16,3.16,0,0,0,3.36,2.83,6.8,6.8,0,0,0,3.3-1v2.37a9,9,0,0,1-3.76.86A5.55,5.55,0,0,1,76,39.14a5.39,5.39,0,0,1,5.46-5.71c2.9,0,4.87,2.28,4.87,5.53a8.93,8.93,0,0,1,0,1Zm2.57-4.38a2.59,2.59,0,0,0-2.57,2.54h4.82A2.4,2.4,0,0,0,81.39,35.63ZM68.94,44.76l-2.26-7.52-2.23,7.52H61.91L58.1,33.7h2.83l2.24,7.52L65.4,33.7H68l2.23,7.52,2.24-7.52h2.83L71.48,44.76ZM51.64,45a5.53,5.53,0,0,1-5.71-5.79,5.7,5.7,0,1,1,11.39,0A5.51,5.51,0,0,1,51.64,45Zm0-9.22c-1.66,0-2.81,1.39-2.81,3.43s1.15,3.43,2.81,3.43,2.79-1.39,2.79-3.43S53.28,35.8,51.64,35.8ZM39.21,39.3H36.67v5.46H33.84V29.54h5.37c3.1,0,5.31,2,5.31,4.89S42.31,39.3,39.21,39.3Zm-.4-7.45H36.67V37h2.15a2.58,2.58,0,1,0,0-5.15Z" fill="#32364e"/><path d="M266.07,40.68H252.47c.31,3.26,2.69,4.21,5.4,4.21a14.67,14.67,0,0,0,6.82-1.54V49a15.59,15.59,0,0,1-7.7,1.8c-6.76,0-11.5-4.24-11.5-12.61,0-7.07,4-12.69,10.63-12.69s10,5.62,10,12.73C266.16,38.85,266.1,40.31,266.07,40.68Zm-10-9.57c-1.74,0-3.67,1.31-3.67,4.44h7.18C259.59,32.43,257.78,31.12,256.08,31.12Zm-21.6,19.64A7.78,7.78,0,0,1,229.57,49l0,7.86-6.94,1.48V25.92h6.12l.36,1.72a7.78,7.78,0,0,1,5.44-2.18c4.88,0,9.47,4.39,9.47,12.48C244,46.76,239.45,50.76,234.48,50.76Zm-1.62-19.15A4.19,4.19,0,0,0,229.55,33l0,10.32a4.15,4.15,0,0,0,3.28,1.32c2.57,0,4.29-2.8,4.29-6.53S235.4,31.61,232.86,31.61ZM212.8,25.92h7V50.26h-7Zm0-7.77,7-1.48v5.66l-7,1.48Zm-7.2,15.61v16.5h-6.94V25.92h6l.44,2.05c1.62-3,4.87-2.38,5.8-2.05V32.3C210,32,207.23,31.6,205.59,33.76Zm-14.66,8c0,4.09,4.38,2.82,5.27,2.46v5.65a10.73,10.73,0,0,1-4.88.92,7,7,0,0,1-7.21-7.15l0-22.28,6.78-1.44v6h5.27v5.92h-5.27Zm-8.43,1.19c0,5-4,7.85-9.75,7.85a19.25,19.25,0,0,1-7.59-1.58V42.55a17.5,17.5,0,0,0,7.6,2.22c1.55,0,2.66-.42,2.66-1.7,0-3.32-10.56-2.07-10.56-9.76,0-4.92,3.76-7.86,9.39-7.86a18.37,18.37,0,0,1,6.9,1.27v6.54a15.57,15.57,0,0,0-6.91-1.79c-1.46,0-2.36.42-2.36,1.51C171.89,36.11,182.51,34.62,182.51,42.91Z" fill="#32364e"/></svg>