<?xml version="1.0" encoding="UTF-8"?>
<svg width="36px" height="22px" viewBox="0 0 36 22" version="1.1" xmlns="http://www.w3.org/2000/svg" xmlns:xlink="http://www.w3.org/1999/xlink">
    <!-- Generator: sketchtool 55.1 (78136) - https://sketchapp.com -->
    <title>22D010EF-7294-4581-895C-57249CD8FECA@0.5x</title>
    <desc>Created with sketchtool.</desc>
    <defs>
        <polygon id="path-1" points="0.00578824212 2.81138282 21.3035959 2.81138282 21.3035959 0.0144987028 0.00578824212 0.0144987028"></polygon>
    </defs>
    <g id="Page-1" stroke="none" stroke-width="1" fill="none" fill-rule="evenodd">
        <g id="9-pago-copy" transform="translate(-244.000000, -1117.000000)">
            <g id="masterdcard-dark" transform="translate(244.000000, 1117.000000)">
                <rect id="Rectangle" fill="#E8E8E8" x="0" y="0" width="36" height="21.6" rx="4"></rect>
                <g id="mastercard" transform="translate(6.000000, 1.000000)">
                    <g id="Card-networks/MC-Horizontal" transform="translate(0.700000, 0.320000)">
                        <g id="Group-3" transform="translate(0.340014, 14.971276)">
                            <mask id="mask-2" fill="white">
                                <use xlink:href="#path-1"></use>
                            </mask>
                            <g id="Clip-2"></g>
                            <path d="M18.9288575,1.7475154 C18.9288575,1.38565027 19.1512273,1.09607784 19.5104102,1.09607784 C19.8538069,1.09607784 20.0800746,1.37360148 20.0800746,1.7475154 C20.0800746,2.12142931 19.8538069,2.39895296 19.5104102,2.39895296 C19.1512273,2.39895296 18.9288575,2.10938053 18.9288575,1.7475154 L18.9288575,1.7475154 Z M20.4390625,1.7475154 L20.4390625,0.0144987028 L20.0644833,0.0144987028 L20.0644833,1.01976887 C19.9356608,0.84686883 19.7249844,0.738228965 19.4595438,0.738228965 C18.9366531,0.738228965 18.5384922,1.16053883 18.5384922,1.7475154 C18.5384922,2.33469278 18.9366531,2.75680183 19.4595438,2.75680183 C19.7249844,2.75680183 19.9356608,2.64816196 20.0644833,2.47526192 L20.0644833,2.70860669 L20.4390625,2.70860669 L20.4390625,1.7475154 Z M15.1629921,1.7475154 C15.1629921,1.38565027 15.3853619,1.09607784 15.7443499,1.09607784 C16.0877466,1.09607784 16.3142091,1.37360148 16.3142091,1.7475154 C16.3142091,2.12142931 16.0877466,2.39895296 15.7443499,2.39895296 C15.3853619,2.39895296 15.1629921,2.10938053 15.1629921,1.7475154 L15.1629921,1.7475154 Z M16.6731971,1.7475154 L16.6731971,0.786424099 L16.2986179,0.786424099 L16.2986179,1.01976887 C16.1697954,0.84686883 15.959119,0.738228965 15.6936784,0.738228965 C15.1707877,0.738228965 14.7726268,1.16053883 14.7726268,1.7475154 C14.7726268,2.33469278 15.1707877,2.75680183 15.6936784,2.75680183 C15.959119,2.75680183 16.1697954,2.64816196 16.2986179,2.47526192 L16.2986179,2.70860669 L16.6731971,2.70860669 L16.6731971,1.7475154 Z M21.0833699,2.56442292 L21.0833699,2.6118148 L21.1256611,2.6118148 C21.1352107,2.6118148 21.1430063,2.60980667 21.148853,2.60579041 C21.1545048,2.60197496 21.1574282,2.59595057 21.1574282,2.58791805 C21.1574282,2.58008634 21.1545048,2.57426276 21.148853,2.5702465 C21.1430063,2.56643105 21.1352107,2.56442292 21.1256611,2.56442292 L21.0833699,2.56442292 Z M21.1260508,2.53128876 C21.1480734,2.53128876 21.1652238,2.53630909 21.1771121,2.54655056 C21.1890004,2.55659121 21.195042,2.57044731 21.195042,2.58791805 C21.195042,2.6025774 21.1901697,2.61462618 21.180815,2.6240644 C21.1712654,2.63350261 21.1576231,2.639527 21.1400829,2.64153513 L21.1964062,2.70840588 L21.152361,2.70840588 L21.1001304,2.64213757 L21.0833699,2.64213757 L21.0833699,2.70840588 L21.0467305,2.70840588 L21.0467305,2.53128876 L21.1260508,2.53128876 Z M21.115137,2.76925224 C21.1352107,2.76925224 21.1537253,2.76543679 21.1710705,2.75760508 C21.1882208,2.74977337 21.2034223,2.73913028 21.216285,2.72587662 C21.2293427,2.71242214 21.239477,2.69675872 21.2470777,2.67848474 C21.2544835,2.66041156 21.2581865,2.64113351 21.2581865,2.62065057 C21.2581865,2.59996683 21.2544835,2.58068878 21.2470777,2.5626156 C21.239477,2.54454243 21.2293427,2.52887901 21.216285,2.51542453 C21.2034223,2.50197006 21.1882208,2.49152778 21.1710705,2.48389688 C21.1537253,2.47606517 21.1352107,2.47224972 21.115137,2.47224972 C21.0948684,2.47224972 21.0757691,2.47606517 21.058229,2.48389688 C21.040494,2.49152778 21.0250977,2.50197006 21.01204,2.51542453 C20.9991772,2.52887901 20.9888481,2.54454243 20.9814422,2.5626156 C20.9740364,2.58068878 20.9703335,2.59996683 20.9703335,2.62065057 C20.9703335,2.64113351 20.9740364,2.66041156 20.9814422,2.67848474 C20.9888481,2.69675872 20.9991772,2.71242214 21.01204,2.72587662 C21.0250977,2.73913028 21.040494,2.74977337 21.058229,2.75760508 C21.0757691,2.76543679 21.0948684,2.76925224 21.115137,2.76925224 L21.115137,2.76925224 Z M21.115137,2.42987817 C21.1412523,2.42987817 21.1656136,2.4348985 21.1884157,2.44473834 C21.2112179,2.45477899 21.2312916,2.46843428 21.2484419,2.4857042 C21.2653974,2.50297412 21.2788448,2.52325624 21.2887842,2.54655056 C21.2985288,2.56964406 21.3035959,2.59434406 21.3035959,2.62065057 C21.3035959,2.64675627 21.2985288,2.67145628 21.2887842,2.69454978 C21.2788448,2.71764328 21.2653974,2.73772459 21.2484419,2.75499451 C21.2312916,2.77226443 21.2112179,2.78612053 21.1884157,2.79616119 C21.1656136,2.80640265 21.1412523,2.81142298 21.115137,2.81142298 C21.088437,2.81142298 21.0636859,2.80640265 21.040494,2.79616119 C21.017302,2.78612053 20.9972283,2.77226443 20.9804678,2.75499451 C20.9633174,2.73772459 20.9500649,2.71764328 20.9401255,2.69454978 C20.930381,2.67145628 20.9255087,2.64675627 20.9255087,2.62065057 C20.9255087,2.59434406 20.930381,2.56964406 20.9401255,2.54655056 C20.9500649,2.52325624 20.9633174,2.50297412 20.9804678,2.4857042 C20.9972283,2.46843428 21.017302,2.45477899 21.040494,2.44473834 C21.0636859,2.4348985 21.088437,2.42987817 21.115137,2.42987817 L21.115137,2.42987817 Z M18.1093438,0.738228965 C17.8752805,0.738228965 17.7072851,0.850885091 17.6020443,1.01976887 L17.6020443,0.786424099 L17.231168,0.786424099 L17.231168,2.70860669 L17.6059421,2.70860669 L17.6059421,1.62682675 C17.6059421,1.30914049 17.7542536,1.10411036 18.0194993,1.10411036 C18.1015482,1.10411036 18.1872999,1.11615914 18.2732465,1.15230549 L18.3981712,0.79044036 C18.3083268,0.75429401 18.1911977,0.738228965 18.1093438,0.738228965 L18.1093438,0.738228965 Z M3.70909386,1.7475154 C3.70909386,1.38565027 3.93165859,1.09607784 4.29064654,1.09607784 C4.63404326,1.09607784 4.86050579,1.37360148 4.86050579,1.7475154 C4.86050579,2.12142931 4.63404326,2.39895296 4.29064654,2.39895296 C3.93165859,2.39895296 3.70909386,2.10938053 3.70909386,1.7475154 L3.70909386,1.7475154 Z M5.21949374,1.7475154 L5.21949374,0.786424099 L4.84471968,0.786424099 L4.84471968,1.01976887 C4.71609208,0.84686883 4.50522076,0.738228965 4.23997506,0.738228965 C3.71708436,0.738228965 3.31892346,1.16053883 3.31892346,1.7475154 C3.31892346,2.33469278 3.71708436,2.75680183 4.23997506,2.75680183 C4.50522076,2.75680183 4.71609208,2.64816196 4.84471968,2.47526192 L4.84471968,2.70860669 L5.21949374,2.70860669 L5.21949374,1.7475154 Z M10.2692965,1.09607784 C10.5462356,1.09607784 10.7337201,1.28102666 10.7610047,1.58264788 L9.75400652,1.58264788 C9.78928166,1.30110797 9.96877564,1.09607784 10.2692965,1.09607784 L10.2692965,1.09607784 Z M10.2770921,0.738228965 C9.73061968,0.738228965 9.35604051,1.14427297 9.35604051,1.74349914 C9.35604051,2.35477409 9.7464058,2.75680183 10.3043767,2.75680183 C10.5854086,2.75680183 10.8428587,2.68450913 11.0693212,2.4873107 L10.8701433,2.20195535 C10.7140362,2.33067652 10.5150532,2.40296922 10.3277636,2.40296922 C10.0662208,2.40296922 9.80097508,2.25015048 9.75400652,1.9043504 L11.1472773,1.9043504 C11.1511751,1.852139 11.1550729,1.79972679 11.1550729,1.74349914 C11.1511751,1.14427297 10.7999828,0.738228965 10.2770921,0.738228965 L10.2770921,0.738228965 Z M12.8995361,1.7475154 C12.8995361,2.33067652 13.2780131,2.75680183 13.8790548,2.75680183 C14.1600866,2.75680183 14.3473762,2.69254165 14.550257,2.52767413 L14.3551718,2.22605291 C14.2029624,2.33870904 14.0429575,2.39895296 13.8673613,2.39895296 C13.5434536,2.3949367 13.2897065,2.13347809 13.2897065,1.7475154 C13.2897065,1.3615527 13.5434536,1.1000941 13.8673613,1.09607784 C14.0429575,1.09607784 14.2029624,1.15632175 14.3551718,1.26897788 L14.550257,0.967356665 C14.3473762,0.802489144 14.1600866,0.738228965 13.8790548,0.738228965 C13.2780131,0.738228965 12.8995361,1.16455509 12.8995361,1.7475154 L12.8995361,1.7475154 Z M7.24089601,0.939242837 C7.04581081,0.806505405 6.7764724,0.738228965 6.47984936,0.738228965 C6.00782503,0.738228965 5.7189976,0.967356665 5.7189976,1.34950391 C5.7189976,1.6629731 5.92967402,1.852139 6.34732395,1.91238292 L6.53851134,1.94049675 C6.76088118,1.97262683 6.88190806,2.05315287 6.88190806,2.16159192 C6.88190806,2.3103944 6.71800531,2.40698548 6.44087129,2.40698548 C6.14814605,2.40698548 5.95695866,2.31441066 5.82053545,2.20597161 L5.62915317,2.50759282 C5.90628718,2.71663922 6.23799049,2.75680183 6.43697349,2.75680183 C6.9756503,2.75680183 7.27207846,2.4995603 7.27207846,2.13347809 C7.27207846,1.79571053 7.04581081,1.62281049 6.63595649,1.56256657 L6.4447691,1.53445274 C6.26917293,1.51035517 6.1130658,1.45392671 6.1130658,1.32540635 C6.1130658,1.18463639 6.26137732,1.08804531 6.48374716,1.08804531 C6.72190312,1.08804531 6.95206857,1.18062013 7.06529984,1.25291283 L7.24089601,0.939242837 Z M12.4740905,0.738228965 C12.2400273,0.738228965 12.0722267,0.850885091 11.9667911,1.01976887 L11.9667911,0.786424099 L11.5961097,0.786424099 L11.5961097,2.70860669 L11.9706889,2.70860669 L11.9706889,1.62682675 C11.9706889,1.30914049 12.1190004,1.10411036 12.384441,1.10411036 C12.4662949,1.10411036 12.5522415,1.11615914 12.6379933,1.15230549 L12.762918,0.79044036 C12.6732684,0.75429401 12.5561394,0.738228965 12.4740905,0.738228965 L12.4740905,0.738228965 Z M9.01264379,0.786424099 L8.33364596,0.786424099 L8.33364596,0.203463791 L7.95516898,0.203463791 L7.95516898,0.786424099 L7.56090589,0.786424099 L7.56090589,1.13624045 L7.95516898,1.13624045 L7.95516898,2.04512035 C7.95516898,2.49132696 8.10737831,2.75680183 8.58719825,2.75680183 C8.76279441,2.75680183 8.96587011,2.70057417 9.09469261,2.60799935 L8.97756353,2.26621553 C8.85653665,2.33870904 8.72381635,2.37485539 8.61857559,2.37485539 C8.41549989,2.37485539 8.33364596,2.24613422 8.33364596,2.05315287 L8.33364596,1.13624045 L9.01264379,1.13624045 L9.01264379,0.786424099 Z M2.93265088,2.70860669 L2.93265088,1.49810558 C2.93265088,1.04386644 2.66721028,0.742245226 2.21448009,0.738228965 C1.97651903,0.734212704 1.73056746,0.810521666 1.5588691,1.08001279 C1.43004661,0.866950136 1.2271658,0.738228965 0.942236168,0.738228965 C0.743253165,0.738228965 0.532576742,0.794456622 0.380367413,1.01976887 L0.380367413,0.786424099 L0.00578824212,0.786424099 L0.00578824212,2.70860669 L0.384265219,2.70860669 L0.384265219,1.60674544 C0.384265219,1.27299414 0.579350416,1.09607784 0.856484433,1.09607784 C1.12562795,1.09607784 1.27783728,1.2770104 1.27783728,1.60272918 L1.27783728,2.70860669 L1.65650914,2.70860669 L1.65650914,1.60674544 C1.65650914,1.27299414 1.85938995,1.09607784 2.12872836,1.09607784 C2.40586238,1.09607784 2.55397901,1.2770104 2.55397901,1.60272918 L2.55397901,2.70860669 L2.93265088,2.70860669 Z" id="Fill-1" fill="#000000" mask="url(#mask-2)"></path>
                        </g>
                        <g id="Group" transform="translate(0.340014, 0.257606)">
                            <polygon id="Fill-1" fill="#FF5F00" points="7.76058674 11.626155 13.512864 11.626155 13.512864 1.31480622 7.76058674 1.31480622"></polygon>
                            <path d="M8.03534078,6.49185573 C8.03534078,4.42095375 9.00637184,2.57654541 10.5184498,1.38799482 C9.41269877,0.518627141 8.0172818,0 6.50068911,0 C2.91038436,0 0,2.90636774 0,6.49185573 C0,10.0771634 2.91038436,12.9837115 6.50068911,12.9837115 C8.0172818,12.9837115 9.41269877,12.4650843 10.5184498,11.5957166 C9.00637184,10.4069857 8.03534078,8.56275771 8.03534078,6.49185573" id="Fill-2" fill="#EB001B"></path>
                            <path d="M20.8339167,10.5146423 L20.8339167,10.2625419 L20.7680014,10.2625419 L20.6923343,10.4358384 L20.6164867,10.2625419 L20.5505714,10.2625419 L20.5505714,10.5146423 L20.5971635,10.5146423 L20.5971635,10.3245752 L20.6681353,10.4883142 L20.7163528,10.4883142 L20.7875051,10.3240342 L20.7875051,10.5146423 L20.8339167,10.5146423 Z M20.4167544,10.5146423 L20.4167544,10.3056406 L20.5010898,10.3056406 L20.5010898,10.2629026 L20.286188,10.2629026 L20.286188,10.3056406 L20.3705234,10.3056406 L20.3705234,10.5146423 L20.4167544,10.5146423 Z M21.0368996,6.49185573 C21.0368996,10.0771634 18.1265152,12.9837115 14.5362105,12.9837115 C13.0196178,12.9837115 11.6243814,12.4650843 10.5184498,11.5957166 C12.0305277,10.4069857 13.0015588,8.56275771 13.0015588,6.49185573 C13.0015588,4.42095375 12.0305277,2.57654541 10.5184498,1.38799482 C11.6243814,0.518627141 13.0196178,0 14.5362105,0 C18.1265152,0 21.0368996,2.90636774 21.0368996,6.49185573 L21.0368996,6.49185573 Z" id="Fill-3" fill="#F79E1B"></path>
                        </g>
                    </g>
                </g>
            </g>
        </g>
    </g>
</svg>