<?xml version="1.0" encoding="UTF-8"?>
<svg width="36px" height="22px" viewBox="0 0 36 22" version="1.1" xmlns="http://www.w3.org/2000/svg" xmlns:xlink="http://www.w3.org/1999/xlink">
    <!-- Generator: sketchtool 54.1 (76490) - https://sketchapp.com -->
    <title>80BDEE0D-0A9C-422D-AB3D-8384B10A9283_webview</title>
    <desc>Created with sketchtool.</desc>
    <g id="Page-1" stroke="none" stroke-width="1" fill="none" fill-rule="evenodd">
        <g id="9-pago" transform="translate(-245.000000, -989.000000)">
            <g id="Visa-dark" transform="translate(245.000000, 989.000000)">
                <g>
                    <rect id="Rectangle" fill="#26337A" x="0" y="0" width="36" height="21.6" rx="4"></rect>
                    <polyline id="Fill-3" fill="#FFFFFE" points="14.9363967 14.2368338 16.0433021 7.37016338 17.8126507 7.37016338 16.7058465 14.2368338 14.9363967 14.2368338"></polyline>
                    <path d="M23.1238335,7.53870423 C22.7739915,7.40089014 22.2237771,7.25060282 21.538362,7.25060282 C19.7890507,7.25060282 18.5576715,8.18244507 18.5474505,9.51677746 C18.5363187,10.5037859 19.4261541,11.054231 20.0969967,11.3822873 C20.7864597,11.7185577 21.0181023,11.9337465 21.01537,12.2344225 C21.0106136,12.6943099 20.4650544,12.9050366 19.9563312,12.9050366 C19.2479441,12.9050366 18.8715882,12.8012958 18.2896988,12.5449352 L18.0621041,12.4356169 L17.8146747,13.9726648 C18.2272595,14.1639211 18.9921152,14.3299268 19.7859135,14.3386479 C21.6450249,14.3386479 22.8530273,13.418062 22.867195,11.9931718 C22.8735705,11.2105014 22.4020883,10.617262 21.3809989,10.1274592 C20.7626782,9.80903662 20.3831851,9.59810704 20.3875366,9.27583099 C20.3879414,8.99046761 20.7081324,8.68492394 21.4011373,8.68492394 C21.9798896,8.67559437 22.39885,8.8092507 22.7253152,8.94878873 L22.8841963,9.02727887 L23.1238335,7.53870423" id="Fill-4" fill="#FFFFFE"></path>
                    <path d="M25.4798278,11.8023211 C25.626464,11.4076394 26.184673,9.88296338 26.184673,9.88296338 C26.1743508,9.90111549 26.3304995,9.48523944 26.4198575,9.22786479 L26.5392713,9.82009014 C26.5392713,9.82009014 26.8787912,11.4590535 26.9487191,11.8023211 L25.4798278,11.8023211 L25.4798278,11.8023211 Z M27.6626721,7.37716056 L26.2952826,7.37716056 C25.8711611,7.37716056 25.5537025,7.49864789 25.3679027,7.9463662 L22.7402925,14.2392676 L24.5986955,14.2392676 C24.5986955,14.2392676 24.9018852,13.3927099 24.9706999,13.2069296 C25.1733998,13.2069296 26.9791797,13.2104789 27.2369314,13.2104789 C27.2899593,13.450107 27.4523823,14.2392676 27.4523823,14.2392676 L29.094626,14.2392676 L27.6626721,7.37716056 L27.6626721,7.37716056 Z" id="Fill-5" fill="#FFFFFE"></path>
                    <path d="M13.4520221,7.37594366 L11.7202181,12.0573634 L11.5347218,11.1057465 C11.2120009,10.0093183 10.2074068,8.82091268 9.08370249,8.22544225 L10.6680608,14.2308507 L12.5406315,14.2297352 L15.3270216,7.37594366 L13.4520221,7.37594366" id="Fill-6" fill="#FFFFFE"></path>
                    <path d="M10.1125841,7.37127887 L7.25930212,7.37127887 L7.23582415,7.51355493 C9.45601051,8.08235493 10.9250029,9.45532394 11.5347218,11.1057465 L10.9146807,7.95062535 C10.8077143,7.51548169 10.4968335,7.38649014 10.1125841,7.37127887" id="Fill-7" fill="#EC982D"></path>
                </g>
            </g>
        </g>
    </g>
</svg>