<?xml version="1.0" encoding="utf-8"?>
<!-- Generator: Adobe Illustrator 23.1.1, SVG Export Plug-In . SVG Version: 6.00 Build 0)  -->
<svg version="1.1" id="Capa_1" xmlns="http://www.w3.org/2000/svg" xmlns:xlink="http://www.w3.org/1999/xlink" x="0px" y="0px"
	 viewBox="0 0 511 511" style="enable-background:new 0 0 511 511;" xml:space="preserve">
<style type="text/css">
	.st0{fill:#FFFFFF;}
</style>
<path class="st0" d="M153.4,103.7c-12.4,0-22.5-10.1-22.5-22.5V21.5C130.9,9.1,141-1,153.4-1s22.5,10.1,22.5,22.5v59.7
	C175.9,93.6,165.8,103.7,153.4,103.7z M153.4,14c-4.1,0-7.5,3.4-7.5,7.5v59.7c0,4.1,3.4,7.5,7.5,7.5s7.5-3.4,7.5-7.5V21.5
	C160.9,17.3,157.5,14,153.4,14z"/>
<path class="st0" d="M221.6,103.7c-12.4,0-22.5-10.1-22.5-22.5V21.5C199.1,9.1,209.2-1,221.6-1s22.5,10.1,22.5,22.5v59.7
	C244.1,93.6,234,103.7,221.6,103.7z M221.6,14c-4.1,0-7.5,3.4-7.5,7.5v59.7c0,4.1,3.4,7.5,7.5,7.5c4.2,0,7.5-3.4,7.5-7.5V21.5
	C229.1,17.3,225.7,14,221.6,14z"/>
<path class="st0" d="M289.7,103.7c-12.4,0-22.5-10.1-22.5-22.5V21.5C267.3,9.1,277.3-1,289.7-1c12.4,0,22.5,10.1,22.5,22.5v59.7
	C312.2,93.6,302.2,103.7,289.7,103.7z M289.7,14c-4.1,0-7.5,3.4-7.5,7.5v59.7c0,4.1,3.4,7.5,7.5,7.5s7.5-3.4,7.5-7.5V21.5
	C297.3,17.3,293.9,14,289.7,14z"/>
<path class="st0" d="M357.9,103.7c-12.4,0-22.5-10.1-22.5-22.5V21.5C335.4,9.1,345.5-1,357.9-1c12.4,0,22.5,10.1,22.5,22.5v59.7
	C380.4,93.6,370.3,103.7,357.9,103.7z M357.9,14c-4.2,0-7.5,3.4-7.5,7.5v59.7c0,4.1,3.4,7.5,7.5,7.5c4.1,0,7.5-3.4,7.5-7.5V21.5
	C365.5,17.3,362.1,14,357.9,14z"/>
<path class="st0" d="M369.3,221.8H262.8c-4.1,0-7.5-3.3-7.5-7.5c0-4.1,3.3-7.5,7.5-7.5h106.5c4.1,0,7.5,3.4,7.5,7.5
	C376.7,218.5,373.4,221.8,369.3,221.8z"/>
<path class="st0" d="M308.9,157.4H202.4c-4.1,0-7.5-3.4-7.5-7.5c0-4.1,3.4-7.5,7.5-7.5h106.5c4.1,0,7.5,3.4,7.5,7.5
	C316.4,154.1,313,157.4,308.9,157.4z"/>
<path class="st0" d="M369.3,255.7H262.8c-4.1,0-7.5-3.3-7.5-7.5c0-4.1,3.3-7.5,7.5-7.5h106.5c4.1,0,7.5,3.4,7.5,7.5
	C376.7,252.3,373.4,255.7,369.3,255.7z"/>
<path class="st0" d="M369.3,289.6H262.8c-4.1,0-7.5-3.4-7.5-7.5c0-4.1,3.3-7.5,7.5-7.5h106.5c4.1,0,7.5,3.4,7.5,7.5
	C376.7,286.2,373.4,289.6,369.3,289.6z"/>
<path class="st0" d="M369.3,357.3H262.8c-4.1,0-7.5-3.4-7.5-7.5c0-4.1,3.3-7.5,7.5-7.5h106.5c4.1,0,7.5,3.4,7.5,7.5
	C376.7,353.9,373.4,357.3,369.3,357.3z"/>
<path class="st0" d="M369.3,391.1H262.8c-4.1,0-7.5-3.4-7.5-7.5c0-4.1,3.3-7.5,7.5-7.5h106.5c4.1,0,7.5,3.3,7.5,7.5
	C376.7,387.8,373.4,391.1,369.3,391.1z"/>
<path class="st0" d="M369.3,425H262.8c-4.1,0-7.5-3.4-7.5-7.5c0-4.1,3.3-7.5,7.5-7.5h106.5c4.1,0,7.5,3.3,7.5,7.5
	C376.7,421.6,373.4,425,369.3,425z"/>
<path class="st0" d="M183.7,268.6c-2,0-3.9-0.8-5.3-2.2l-13.3-13.3c-2.9-2.9-2.9-7.7,0-10.6c2.9-2.9,7.7-2.9,10.6,0l8,8l16.2-16.2
	c2.9-2.9,7.7-2.9,10.6,0c2.9,2.9,2.9,7.7,0,10.6L189,266.4C187.6,267.8,185.7,268.6,183.7,268.6z"/>
<path class="st0" d="M187,298.5c-27.7,0-50.3-22.6-50.3-50.3c0-27.7,22.6-50.3,50.3-50.3s50.3,22.6,50.3,50.3
	C237.3,275.9,214.7,298.5,187,298.5z M187,212.9c-19.5,0-35.3,15.9-35.3,35.3c0,19.5,15.9,35.3,35.3,35.3
	c19.5,0,35.3-15.9,35.3-35.3C222.3,228.7,206.5,212.9,187,212.9z"/>
<path class="st0" d="M183.7,404c-2,0-3.9-0.8-5.3-2.2l-13.3-13.3c-2.9-2.9-2.9-7.7,0-10.6c2.9-2.9,7.7-2.9,10.6,0l8,8l16.2-16.2
	c2.9-2.9,7.7-2.9,10.6,0c2.9,2.9,2.9,7.7,0,10.6L189,401.8C187.6,403.2,185.7,404,183.7,404z"/>
<path class="st0" d="M187,434c-27.7,0-50.3-22.6-50.3-50.3c0-27.7,22.6-50.3,50.3-50.3s50.3,22.6,50.3,50.3
	C237.3,411.4,214.7,434,187,434z M187,348.3c-19.5,0-35.3,15.9-35.3,35.3c0,19.5,15.9,35.3,35.3,35.3c19.5,0,35.3-15.9,35.3-35.3
	C222.3,364.2,206.5,348.3,187,348.3z"/>
<path class="st0" d="M397,510H273.1c-4.1,0-7.5-3.3-7.5-7.5s3.4-7.5,7.5-7.5H397c8,0,14.6-6.5,14.6-14.6v-192c0-4.1,3.3-7.5,7.5-7.5
	s7.5,3.3,7.5,7.5v192C426.5,496.8,413.2,510,397,510z"/>
<path class="st0" d="M238.2,510H114.3c-16.3,0-29.5-13.2-29.5-29.5V69.4c0-16.3,13.2-29.5,29.5-29.5h24c4.1,0,7.5,3.3,7.5,7.5v33.9
	c0,4.1,3.4,7.5,7.5,7.5c4.1,0,7.5-3.4,7.5-7.5V47.3c0-4.1,3.4-7.5,7.5-7.5h38.2c4.1,0,7.5,3.3,7.5,7.5v33.9c0,4.1,3.4,7.5,7.5,7.5
	c4.1,0,7.5-3.4,7.5-7.5V47.3c0-4.1,3.4-7.5,7.5-7.5h38.2c4.1,0,7.5,3.3,7.5,7.5v33.9c0,4.1,3.4,7.5,7.5,7.5c4.2,0,7.5-3.4,7.5-7.5
	V47.3c0-4.1,3.4-7.5,7.5-7.5h38.2c4.1,0,7.5,3.3,7.5,7.5v33.9c0,4.1,3.4,7.5,7.5,7.5s7.5-3.4,7.5-7.5V47.3c0-4.1,3.3-7.5,7.5-7.5h24
	c16.3,0,29.5,13.2,29.5,29.5v184.2c0,4.1-3.4,7.5-7.5,7.5c-4.1,0-7.5-3.4-7.5-7.5V69.4c0-8-6.5-14.6-14.6-14.6h-16.5v26.4
	c0,12.4-10.1,22.5-22.5,22.5s-22.5-10.1-22.5-22.5V54.8h-23.2v26.4c0,12.4-10.1,22.5-22.5,22.5c-12.4,0-22.5-10.1-22.5-22.5V54.8
	h-23.2v26.4c0,12.4-10.1,22.5-22.5,22.5s-22.5-10.1-22.5-22.5V54.8h-23.2v26.4c0,12.4-10.1,22.5-22.5,22.5
	c-12.4,0-22.5-10.1-22.5-22.5V54.8h-16.5c-8,0-14.6,6.5-14.6,14.6v411.1c0,8,6.5,14.6,14.6,14.6h123.8c4.1,0,7.5,3.3,7.5,7.5
	C245.7,506.7,242.3,510,238.2,510z"/>
</svg>
